# xmcd CD database file
#
# Track frame offsets:
#	150
#	1186
#	16987
#	25155
#	26736
#	43581
#	58378
#	59933
#	80738
#	82001
#	96929
#	118421
#	119970
#	131001
#	144935
#	146647
#	163569
#	195140
#
# Disc length: 3041 seconds
#
# Revision: 0
# Processed by: cddbd v1.5.2PL0 Copyright (c) Steve Scherf et al.
# Submitted via: CDex 1.51
#
DISCID=080bdf12
DTITLE=The Baby Loves Jazz Band - Go Baby Go
DYEAR=2006
DGENRE=Jazz
TTITLE0=Baby Loves Jazz Theme
TTITLE1=Happy and You Know It
TTITLE2=ABC
TTITLE3=The Trumpet
TTITLE4=Working on the Railroad
TTITLE5=Old MacDonald
TTITLE6=The Piano
TTITLE7=Paw Paw Patch
TTITLE8=The Drums
TTITLE9=Ten Little Monkeys
TTITLE10=The Wheels on the Bus
TTITLE11=The Saxaphone
TTITLE12=Scat Song
TTITLE13=Go Baby Go
TTITLE14=The Bass
TTITLE15=You Are My Sunshine
TTITLE16=Banana Boat Song
TTITLE17=Lullaby Jazz
EXTD=YEAR: 2006
EXTT0=
EXTT1=
EXTT2=
EXTT3=
EXTT4=
EXTT5=
EXTT6=
EXTT7=
EXTT8=
EXTT9=
EXTT10=
EXTT11=
EXTT12=
EXTT13=
EXTT14=
EXTT15=
EXTT16=
EXTT17=
PLAYORDER=
